<svg width="12" height="15" viewBox="0 0 12 15" fill="none" xmlns="http://www.w3.org/2000/svg">
<g clip-path="url(#clip0_264_241)">
<path d="M6.48717 14.6037C7.96903 12.7493 11.3487 8.25456 11.3487 5.7299C11.3487 2.66796 8.8645 0.183746 5.80256 0.183746C2.74062 0.183746 0.256409 2.66796 0.256409 5.7299C0.256409 8.25456 3.6361 12.7493 5.11796 14.6037C5.47326 15.0457 6.13187 15.0457 6.48717 14.6037ZM5.80256 3.88118C6.29287 3.88118 6.7631 4.07596 7.1098 4.42266C7.45651 4.76936 7.65128 5.23959 7.65128 5.7299C7.65128 6.22021 7.45651 6.69044 7.1098 7.03714C6.7631 7.38384 6.29287 7.57862 5.80256 7.57862C5.31225 7.57862 4.84202 7.38384 4.49532 7.03714C4.14862 6.69044 3.95384 6.22021 3.95384 5.7299C3.95384 5.23959 4.14862 4.76936 4.49532 4.42266C4.84202 4.07596 5.31225 3.88118 5.80256 3.88118Z" fill="#DC3545"/>
</g>
<defs>
<clipPath id="clip0_264_241">
<rect width="11.0923" height="14.7897" fill="white" transform="translate(0.256409 0.183746)"/>
</clipPath>
</defs>
</svg>
